<svg width="30" height="30" viewBox="0 0 61 61" fill="none" xmlns="http://www.w3.org/2000/svg">
<path fill-rule="evenodd" clip-rule="evenodd" d="M30.5 0L35.8438 8.63837C38.3296 9.2439 40.6538 10.2625 42.7397 11.6171L52.0972 9.1098L49.5679 18.5497C50.8306 20.5603 51.7842 22.7848 52.3618 25.1564L61 30.5L52.3618 35.8436C51.7783 38.2395 50.811 40.4853 49.5288 42.512L52.0972 52.097L42.5122 49.5287C40.4854 50.8108 38.2397 51.778 35.8438 52.3616L30.5 61L25.1562 52.3616C22.7847 51.7839 20.5605 50.8304 18.5498 49.5677L9.10986 52.097L11.6172 42.7398C10.2622 40.654 9.24365 38.3297 8.63818 35.8436L0 30.5L8.63818 25.1564C9.23779 22.6944 10.2427 20.391 11.5781 18.3208L9.10986 9.10974L18.3213 11.5779C20.3916 10.2427 22.6943 9.23804 25.1562 8.63837L30.5 0Z" fill="#FFC700"/>
</svg>
